# File created by Blade
# Date/Time:  Wed Jan 21 14:37:15 2015
# Frame Rate: 120.000 fps
#------------------------------------------------------
:FULLY-SPECIFIED
:DEGREES
347
root 18.635532 35.586743 -21.104232 -175.281114 -8.009407 -180.012399
Spine -17.162854 7.559749 0.965642
Head 6.100512 -9.887822 -4.357375
LeftShoulder 8.073376 -32.881333 -10.649477
LeftArm 18.978501 30.475298 -62.601590
LeftForeArm -14.412994 0.000000 94.462991
LeftHand -1.708862 -0.000000 1.072150
LeftHandThumb1 -26.253704 0.000000 33.147579
RightShoulder 10.912403 31.037602 -29.572562
RightArm 87.613218 -20.296929 50.648272
RightForeArm -49.824194 -0.000000 88.615846
RightHand -4.748699 -0.000000 -0.793937
RightHandThumb1 -24.326973 -0.000000 -32.862282
LeftUpLeg 0.441642 9.314147 0.671406
LeftLeg -5.520097 -0.000000 0.000000
LeftFoot -17.816463 26.748757 -11.494514
LeftToeBase 26.876466 -0.000000 -0.000000
RightUpLeg 1.538036 -12.394954 0.194043
RightLeg -3.088357 -0.000000 0.000000
RightFoot -20.790709 -28.955418 13.390134
RightToeBase 23.904883 -0.000000 -0.000000
348
root 18.640820 35.588127 -21.091747 -175.391608 -7.936968 -179.997234
Spine -17.085137 7.503555 0.976441
Head 6.249331 -9.843888 -4.236097
LeftShoulder 7.627337 -32.801017 -10.100965
LeftArm 19.335353 31.029869 -61.878035
LeftForeArm -12.416266 -0.000000 92.118078
LeftHand -1.690802 -0.000000 1.158151
LeftHandThumb1 -26.253704 0.000000 33.147579
RightShoulder 11.007938 30.203297 -29.080060
RightArm 86.748157 -20.129929 50.454185
RightForeArm -49.041912 0.000000 87.216630
RightHand -4.701248 -0.000000 -0.567489
RightHandThumb1 -24.326973 -0.000000 -32.862282
LeftUpLeg 0.521066 9.388537 0.698677
LeftLeg -5.487259 -0.000000 0.000000
LeftFoot -17.826226 26.762257 -11.497790
LeftToeBase 26.873263 -0.000000 -0.000000
RightUpLeg 1.599690 -12.334319 0.192682
RightLeg -3.052082 -0.000000 0.000000
RightFoot -20.778531 -28.950126 13.387968
RightToeBase 23.871005 -0.000000 -0.000000
349
root 18.644467 35.588584 -21.085615 -175.546839 -7.941573 -179.974586
Spine -16.964315 7.371517 1.014993
Head 6.414256 -9.790076 -4.121660
LeftShoulder 7.246179 -32.820681 -9.604939
LeftArm 19.624183 31.661294 -61.164721
LeftForeArm -10.523817 0.000000 89.716172
LeftHand -1.382132 -0.000000 1.127363
LeftHandThumb1 -26.253704 0.000000 33.147579
RightShoulder 11.067666 29.364475 -28.626361
RightArm 85.907641 -19.944898 50.252801
RightForeArm -48.240444 0.000000 85.778504
RightHand -4.567721 -0.000000 -0.232748
RightHandThumb1 -24.326973 -0.000000 -32.862282
LeftUpLeg 0.652470 9.387540 0.746983
LeftLeg -5.469171 -0.000000 0.000000
LeftFoot -17.829802 26.774502 -11.480053
LeftToeBase 26.818650 -0.000000 -0.000000
RightUpLeg 1.749461 -12.402245 0.187793
RightLeg -3.063542 -0.000000 0.000000
RightFoot -20.745536 -28.889902 13.392214
RightToeBase 23.889717 -0.000000 -0.000000
350
root 18.646769 35.590256 -21.077027 -175.660325 -7.946660 -179.953027
Spine -16.905794 7.418434 0.969933
Head 6.627381 -9.916054 -3.950295
LeftShoulder 7.072468 -32.761263 -9.185164
LeftArm 20.058401 32.380966 -60.407199
LeftForeArm -8.622741 -0.000000 87.259534
LeftHand -1.118835 -0.000000 1.764385
LeftHandThumb1 -26.253704 0.000000 33.147579
RightShoulder 10.926218 28.183697 -28.236729
RightArm 85.150883 -19.605492 49.872984
RightForeArm -47.040919 -0.000000 84.677413
RightHand -5.011423 -0.000000 0.234381
RightHandThumb1 -24.326973 -0.000000 -32.862282
LeftUpLeg 0.735997 9.383511 0.783950
LeftLeg -5.445786 -0.000000 0.000000
LeftFoot -17.844782 26.780386 -11.489886
LeftToeBase 26.791540 -0.000000 -0.000000
RightUpLeg 1.847134 -12.471501 0.188439
RightLeg -3.063717 -0.000000 0.000000
RightFoot -20.725671 -28.812336 13.424576
RightToeBase 23.834409 -0.000000 -0.000000
351
root 18.650896 35.591751 -21.064451 -175.769130 -7.906585 -179.937111
Spine -16.825845 7.348251 0.958831
Head 6.802478 -9.892105 -3.780253
LeftShoulder 6.829015 -32.730527 -8.691698
LeftArm 20.467695 33.007697 -59.652616
LeftForeArm -6.356591 0.000000 84.795231
LeftHand -0.924978 0.000000 2.474240
LeftHandThumb1 -26.253704 0.000000 33.147579
RightShoulder 10.932451 27.121056 -27.792109
RightArm 84.375639 -19.315680 49.593354
RightForeArm -46.538312 -0.000000 83.315597
RightHand -4.788750 -0.000000 -0.019943
RightHandThumb1 -24.326973 -0.000000 -32.862282
LeftUpLeg 0.807663 9.429549 0.813165
LeftLeg -5.407003 -0.000000 0.000000
LeftFoot -17.835049 26.793166 -11.458042
LeftToeBase 26.917828 -0.000000 -0.000000
RightUpLeg 1.921519 -12.499728 0.186864
RightLeg -3.050130 -0.000000 0.000000
RightFoot -20.685773 -28.758834 13.387862
RightToeBase 23.868524 -0.000000 -0.000000
352
root 18.655523 35.593632 -21.050406 -175.872891 -7.855690 -179.920320
Spine -16.760027 7.299741 0.945216
Head 7.014745 -9.885720 -3.624887
LeftShoulder 6.688085 -32.764475 -8.271408
LeftArm 20.808051 33.576140 -58.929370
LeftForeArm -4.345433 -0.000000 82.306652
LeftHand -0.672859 -0.000000 2.781023
LeftHandThumb1 -26.253704 0.000000 33.147579
RightShoulder 10.936250 26.021997 -27.389157
RightArm 83.569676 -19.017514 49.395207
RightForeArm -45.761434 -0.000000 82.162442
RightHand -4.775547 -0.000000 0.397170
RightHandThumb1 -24.326973 -0.000000 -32.862282
LeftUpLeg 0.880037 9.471822 0.840851
LeftLeg -5.383178 -0.000000 0.000000
LeftFoot -17.836355 26.812853 -11.474403
LeftToeBase 26.868745 -0.000000 -0.000000
RightUpLeg 1.984898 -12.495142 0.187681
RightLeg -3.031623 -0.000000 0.000000
RightFoot -20.651770 -28.714831 13.396863
RightToeBase 23.860558 -0.000000 -0.000000
353
root 18.660602 35.595802 -21.033218 -175.962649 -7.794723 -179.909785
Spine -16.656912 7.229617 0.908478
Head 7.102973 -9.843098 -3.369294
LeftShoulder 6.468470 -32.805545 -7.800420
LeftArm 21.316975 34.116532 -58.186903
LeftForeArm -2.333597 -0.000000 79.752826
LeftHand -0.540690 0.000000 2.951170
LeftHandThumb1 -26.253704 0.000000 33.147579
RightShoulder 10.791372 23.590388 -26.944571
RightArm 84.040633 -17.801078 48.552806
RightForeArm -44.643762 -0.000000 81.000813
RightHand -4.853920 -0.000000 0.914860
RightHandThumb1 -24.326973 -0.000000 -32.862282
LeftUpLeg 0.930812 9.538174 0.859436
LeftLeg -5.351215 -0.000000 0.000000
LeftFoot -17.825845 26.826451 -11.487034
LeftToeBase 26.813180 -0.000000 -0.000000
RightUpLeg 2.021695 -12.450324 0.187001
RightLeg -2.997248 -0.000000 0.000000
RightFoot -20.631188 -28.701054 13.392711
RightToeBase 23.819184 -0.000000 -0.000000
354
root 18.664986 35.598639 -21.018007 -176.061857 -7.764926 -179.899267
Spine -16.562639 7.163048 0.870269
Head 7.192489 -9.872252 -3.169604
LeftShoulder 6.415260 -32.948952 -7.420086
LeftArm 21.660508 34.604689 -57.528436
LeftForeArm -0.750103 -0.000000 77.197476
LeftHand -0.409443 -0.000000 2.991882
LeftHandThumb1 -26.253704 0.000000 33.147579
RightShoulder 10.738942 22.361773 -26.519102
RightArm 83.279236 -17.438671 48.387639
RightForeArm -43.463402 -0.000000 80.062670
RightHand -4.893368 0.000000 1.469323
RightHandThumb1 -24.326973 -0.000000 -32.862282
LeftUpLeg 0.993724 9.582539 0.881606
LeftLeg -5.325694 -0.000000 0.000000
LeftFoot -17.819008 26.827436 -11.501958
LeftToeBase 26.824286 -0.000000 -0.000000
RightUpLeg 2.078192 -12.446086 0.183460
RightLeg -2.971853 -0.000000 0.000000
RightFoot -20.607280 -28.666426 13.401810
RightToeBase 23.891117 -0.000000 -0.000000
355
root 18.668239 35.601444 -21.008217 -176.174243 -7.806824 -179.882377
Spine -16.458083 7.019351 0.867097
Head 7.301557 -9.836761 -2.986332
LeftShoulder 6.357763 -32.945187 -7.081947
LeftArm 22.274814 35.045853 -56.661026
LeftForeArm 0.369202 -0.000000 74.604155
LeftHand -0.349132 -0.000000 3.000529
LeftHandThumb1 -26.253704 0.000000 33.147579
RightShoulder 10.633347 21.424159 -26.194579
RightArm 82.260157 -17.330157 48.423835
RightForeArm -42.158143 -0.000000 79.212041
RightHand -4.946901 0.000000 1.857854
RightHandThumb1 -24.326973 -0.000000 -32.862282
LeftUpLeg 1.071392 9.571385 0.915705
LeftLeg -5.305990 -0.000000 0.000000
LeftFoot -17.789456 26.821678 -11.493490
LeftToeBase 26.685836 -0.000000 -0.000000
RightUpLeg 2.183881 -12.532246 0.183755
RightLeg -2.981462 -0.000000 0.000000
RightFoot -20.571970 -28.620804 13.435523
RightToeBase 23.815955 -0.000000 -0.000000
